# xmcd CD database file
#
# Track frame offsets:
#	150
#	23333
#	46855
#	72137
#	95112
#	134368
#	157167
#	173961
#	198023
#	228077
#	244017
#
# Disc length: 3627 seconds
#
# Revision: 0
# Processed by: cddbd v1.5.1PL0 Copyright (c) Steve Scherf et al.
# Submitted via: CDex 1.51
#
DISCID=860e290b
DTITLE=BBC Big Band - Evidence
DYEAR=2001
DGENRE=Jazz
TTITLE0=Deed I Do
TTITLE1=Dindi
TTITLE2=Yes Sir, That's My Baby
TTITLE3=Lester Went Out
TTITLE4=The Touch Of Your Lips
TTITLE5=Thou Swell
TTITLE6=Clair Obscur
TTITLE7=Evidence
TTITLE8=Blues for Clare
TTITLE9=You'd Be So Nice To Come Home
TTITLE10=Shout Me Out
EXTD=YEAR: 2001
EXTT0=
EXTT1=
EXTT2=
EXTT3=
EXTT4=
EXTT5=
EXTT6=
EXTT7=
EXTT8=
EXTT9=
EXTT10=
PLAYORDER=
